<svg version="1.1" xmlns="http://www.w3.org/2000/svg" xmlns:xlink="http://www.w3.org/1999/xlink" width="48" height="48"><defs><linearGradient x1="10.95535" y1="9.95056" x2="64.53283" y2="61.06797" gradientUnits="userSpaceOnUse" id="color-1"><stop offset="0" stop-color="#000000" stop-opacity="0.3"></stop><stop offset="1" stop-color="#000000" stop-opacity="0"></stop></linearGradient><filter id="dropshadow-base"><feColorMatrix type="matrix" values="0 0 0 0 0  0 0 0 0 0  0 0 0 0 0  0 0 0 .8 0"></feColorMatrix> <feOffset dx="0" dy="1"></feOffset> <feGaussianBlur stdDeviation="1"></feGaussianBlur> <feComposite in="SourceGraphic"></feComposite></filter><filter id="dropshadow-banner" x="-10%" y="-10%" width="120%" height="130%"><feColorMatrix type="matrix" values="0 0 0 0 0  0 0 0 0 0  0 0 0 0 0  0 0 0 .4 0"></feColorMatrix> <feOffset dx="0" dy="1"></feOffset> <feGaussianBlur stdDeviation="0.5"></feGaussianBlur> <feComposite in="SourceGraphic"></feComposite></filter></defs><g fill="none" fill-rule="nonzero" stroke="none" stroke-width="none" stroke-linecap="butt" stroke-linejoin="miter" stroke-miterlimit="10" stroke-dasharray="" stroke-dashoffset="0" font-family="none" font-weight="none" font-size="none" text-anchor="none" style="mix-blend-mode: normal"><path d="M2,24c0,-12.15026 9.84974,-22 22,-22c12.15026,0 22,9.84974 22,22c0,12.15026 -9.84974,22 -22,22c-12.15026,0 -22,-9.84974 -22,-22z" id="base 1 9" fill="#008374" stroke-width="1"></path><path d="M14.13598,33.83092l0,0c-0.31479,-0.31479 -0.54467,-0.7145 -0.65233,-1.16182l-2.16803,-2.16803c-0.22259,-0.22259 -0.36027,-0.5301 -0.36027,-0.86977v-3.69013c0,-0.67934 0.5507,-1.23004 1.23004,-1.23004h1.23004c0,-4.75535 3.85497,-8.61032 8.61032,-8.61032h1.23004v-1.43947l-0.51464,-0.51464c-0.44319,-0.44319 -0.7154,-1.05898 -0.7154,-1.73603c0,-1.35866 1.10142,-2.46008 2.46007,-2.46009c0,0 0.00001,0 0.00001,0l0.00001,0c0.67933,0 1.29434,0.27536 1.73953,0.72054l0,0l19.02901,19.02901c-2.32823,8.70333 -9.86,15.27975 -19.05763,16.19158z" fill="url(#color-1)" stroke-width="1"></path><path d="M24.48583,9.95056c1.35867,0 2.46009,1.10142 2.46009,2.46009c0,0.91023 -0.49202,1.70976 -1.23004,2.12798v1.56216h1.23004c4.75535,0 8.61031,3.85497 8.61031,8.61031h1.23004c0.67934,0 1.23004,0.55071 1.23004,1.23004v3.69013c0,0.67934 -0.55071,1.23004 -1.23004,1.23004h-1.23004v1.23004c0,1.35867 -1.10142,2.46009 -2.46009,2.46009h-17.22063c-1.35867,0 -2.46009,-1.10142 -2.46009,-2.46009v-1.23004h-1.23004c-0.67934,0 -1.23004,-0.55071 -1.23004,-1.23004v-3.69013c0,-0.67934 0.55071,-1.23004 1.23004,-1.23004h1.23004c0,-4.75535 3.85497,-8.61031 8.61031,-8.61031h1.23004v-1.56216c-0.73803,-0.41822 -1.23004,-1.21774 -1.23004,-2.12798c0,-1.35867 1.10142,-2.46009 2.46009,-2.46009zM18.95063,23.48106c-1.69834,0 -3.07511,1.37677 -3.07511,3.07511c0,1.69834 1.37677,3.07511 3.07511,3.07511c1.69834,0 3.07511,-1.37677 3.07511,-3.07511c0,-1.69834 -1.37677,-3.07511 -3.07511,-3.07511zM30.02103,23.48106c-1.69834,0 -3.07511,1.37677 -3.07511,3.07511c0,1.69834 1.37677,3.07511 3.07511,3.07511c1.69834,0 3.07511,-1.37677 3.07511,-3.07511c0,-1.69834 -1.37677,-3.07511 -3.07511,-3.07511z" fill="none" stroke-width="0"></path><path d="M26.94592,12.41065c0,0.91023 -0.49202,1.70976 -1.23004,2.12798v1.56216h1.23004c4.75535,0 8.61031,3.85497 8.61031,8.61031h1.23004c0.67934,0 1.23004,0.55071 1.23004,1.23004v3.69013c0,0.67934 -0.55071,1.23004 -1.23004,1.23004h-1.23004v1.23004c0,1.35867 -1.10142,2.46009 -2.46009,2.46009h-17.22063c-1.35867,0 -2.46009,-1.10142 -2.46009,-2.46009v-1.23004h-1.23004c-0.67934,0 -1.23004,-0.55071 -1.23004,-1.23004v-3.69013c0,-0.67934 0.55071,-1.23004 1.23004,-1.23004h1.23004c0,-4.75535 3.85497,-8.61031 8.61031,-8.61031h1.23004v-1.56216c-0.73803,-0.41822 -1.23004,-1.21774 -1.23004,-2.12798c0,-1.35867 1.10142,-2.46009 2.46009,-2.46009c1.35867,0 2.46009,1.10142 2.46009,2.46009zM15.87552,26.55617c0,1.69834 1.37677,3.07511 3.07511,3.07511c1.69834,0 3.07511,-1.37677 3.07511,-3.07511c0,-1.69834 -1.37677,-3.07511 -3.07511,-3.07511c-1.69834,0 -3.07511,1.37677 -3.07511,3.07511zM30.02103,23.48106c-1.69834,0 -3.07511,1.37677 -3.07511,3.07511c0,1.69834 1.37677,3.07511 3.07511,3.07511c1.69834,0 3.07511,-1.37677 3.07511,-3.07511c0,-1.69834 -1.37677,-3.07511 -3.07511,-3.07511z" fill="#ffffff" stroke-width="0"></path><path d="M2,24c0,-12.15026 9.84974,-22 22,-22c12.15026,0 22,9.84974 22,22c0,12.15026 -9.84974,22 -22,22c-12.15026,0 -22,-9.84974 -22,-22z" id="base 1 5 1" fill="none" stroke-width="1"></path><path d="M2,24c0,-12.15026 9.84974,-22 22,-22c12.15026,0 22,9.84974 22,22c0,12.15026 -9.84974,22 -22,22c-12.15026,0 -22,-9.84974 -22,-22z" id="base 1 1 1" fill="none" stroke-width="1"></path><g fill="#000000" stroke-width="1" font-family="Roboto, sans-serif" font-weight="400" font-size="14" text-anchor="start"></g><rect x="2" y="2" width="44" height="22" fill="none" stroke-width="1"></rect><path d="M2,24v-22h44v22z" fill="none" stroke-width="1"></path><path d="M2,24v-22h44v22z" fill="none" stroke-width="1"></path><path d="M2,24v-22h44v22z" fill="none" stroke-width="1"></path><path d="M2,24v-22h44v22z" fill="none" stroke-width="1"></path><g fill="#000000" stroke-width="1" font-family="Roboto, sans-serif" font-weight="400" font-size="14" text-anchor="start"></g><rect x="2" y="2" width="44" height="22" fill="none" stroke-width="1"></rect><path d="M2,24v-22h44v22z" fill="none" stroke-width="1"></path><path d="M2,24v-22h44v22z" fill="none" stroke-width="1"></path><path d="M2,24v-22h44v22z" fill="none" stroke-width="1"></path><path d="M2,24v-22h44v22z" fill="none" stroke-width="1"></path></g></svg>